<?xml version="1.0" encoding="UTF-8"?>
<svg id="Layer_2" data-name="Layer 2" xmlns="http://www.w3.org/2000/svg" viewBox="0 0 1896.81 404.35">
  <defs>
    <style>
      .cls-1 {
        fill: #ef872f;
      }

      .cls-2 {
        fill: #3167b0;
      }

      .cls-3 {
        fill: #5c5d5d;
      }

      .cls-4 {
        fill: #e2196a;
      }

      .cls-5 {
        fill: #43ac49;
      }
    </style>
  </defs>
  <g id="Layer_1-2" data-name="Layer 1">
    <g>
      <g>
        <path class="cls-3" d="m1072.75,347.45h-14.27v40.21h-7.35v-40.21h-9.17v-6.14h9.17v-3.81c0-5.02,1.2-8.75,3.59-11.2,2.39-2.45,6.18-3.67,11.37-3.67h6.66v5.88h-5.27c-3.34,0-5.72.69-7.13,2.08-1.41,1.38-2.12,3.75-2.12,7.09v3.63h14.53v6.14Z"/>
        <path class="cls-3" d="m1088.27,385.54c-3.78-2.1-6.74-5.02-8.91-8.73-2.16-3.72-3.24-7.88-3.24-12.5s1.08-8.78,3.24-12.5c2.16-3.72,5.12-6.63,8.86-8.73,3.75-2.1,7.96-3.16,12.63-3.16s8.89,1.05,12.67,3.16c3.77,2.1,6.74,5.02,8.91,8.73,2.16,3.72,3.24,7.88,3.24,12.5s-1.08,8.78-3.24,12.5-5.13,6.63-8.91,8.73c-3.78,2.11-8,3.16-12.67,3.16s-8.81-1.05-12.58-3.16Zm21.45-6.18c2.62-1.5,4.68-3.56,6.18-6.18,1.5-2.62,2.25-5.58,2.25-8.86s-.75-6.24-2.25-8.86c-1.5-2.62-3.56-4.68-6.18-6.18-2.62-1.5-5.58-2.25-8.86-2.25s-6.24.75-8.86,2.25c-2.62,1.5-4.67,3.56-6.14,6.18-1.47,2.62-2.21,5.58-2.21,8.86s.73,6.24,2.21,8.86c1.47,2.62,3.52,4.68,6.14,6.18,2.62,1.5,5.58,2.25,8.86,2.25s6.24-.75,8.86-2.25Z"/>
        <path class="cls-3" d="m1162.25,340.7v7h-4.76c-4.27,0-7.55,1.3-9.86,3.89-2.31,2.59-3.46,6.17-3.46,10.72v25.34h-7.35v-46.7h5.19l1.21,7.09c3.4-4.9,8.36-7.35,14.87-7.35h4.15Z"/>
        <path class="cls-3" d="m1230.39,342.21c2.48,1.53,4.4,3.65,5.75,6.36,1.35,2.71,2.03,5.79,2.03,9.25v29.83h-7.35v-27.59c0-4.21-.92-7.49-2.77-9.86-1.85-2.36-4.44-3.55-7.78-3.55-2.25,0-4.32.66-6.23,1.99-1.9,1.33-3.42,3.14-4.54,5.45-1.12,2.31-1.69,4.87-1.69,7.7v25.86h-7.18v-27.59c0-4.21-.94-7.49-2.81-9.86-1.87-2.36-4.48-3.55-7.83-3.55-2.25,0-4.32.66-6.23,1.99-1.9,1.33-3.42,3.14-4.54,5.45-1.12,2.31-1.69,4.87-1.69,7.7v25.86h-7.35v-46.7h5.27l1.21,6.4c1.79-2.36,3.99-4.19,6.61-5.49,2.62-1.3,5.41-1.95,8.35-1.95,3.29,0,6.17.79,8.65,2.38,2.48,1.59,4.35,3.76,5.62,6.53,1.79-2.77,4.08-4.94,6.88-6.53,2.8-1.59,5.78-2.38,8.95-2.38s6.17.76,8.65,2.29Z"/>
        <path class="cls-3" d="m1295.85,367.16h-39.86c.63,4.32,2.44,7.8,5.41,10.42,2.97,2.62,6.64,3.93,11.03,3.93,3.23,0,6.1-.7,8.6-2.12,2.51-1.41,4.51-3.42,6.01-6.01h7.7c-1.96,4.84-4.89,8.6-8.78,11.28-3.89,2.68-8.4,4.02-13.53,4.02-4.44,0-8.48-1.07-12.11-3.2-3.63-2.13-6.49-5.06-8.56-8.78-2.08-3.72-3.11-7.85-3.11-12.41s1.04-8.69,3.11-12.41,4.93-6.64,8.56-8.78c3.63-2.13,7.67-3.2,12.11-3.2s8.7,1.08,12.28,3.24c3.57,2.16,6.36,5.12,8.35,8.86s2.98,7.9,2.98,12.45c0,.64-.06,1.53-.17,2.68Zm-34.11-16.6c-2.91,2.42-4.77,5.68-5.58,9.77h32.43c-.75-4.15-2.59-7.42-5.53-9.81-2.94-2.39-6.49-3.59-10.64-3.59s-7.77,1.21-10.68,3.63Z"/>
        <path class="cls-3" d="m1332.43,340.7v7h-4.76c-4.27,0-7.55,1.3-9.86,3.89-2.31,2.59-3.46,6.17-3.46,10.72v25.34h-7.35v-46.7h5.19l1.21,7.09c3.4-4.9,8.36-7.35,14.87-7.35h4.15Z"/>
        <path class="cls-3" d="m1340.38,324.27h7.35v63.39h-7.35v-63.39Z"/>
        <path class="cls-3" d="m1404.46,340.96l-22.22,48.6c-1.73,3.75-3.43,6.69-5.1,8.82-1.67,2.13-3.55,3.66-5.62,4.58-2.08.92-4.61,1.38-7.61,1.38h-4.41v-6.66h3.81c2.13,0,3.85-.27,5.15-.82,1.3-.55,2.48-1.48,3.55-2.81,1.07-1.33,2.23-3.34,3.5-6.05l1.64-3.55-20.75-43.5h8.04l16.6,35.37,15.57-35.37h7.87Z"/>
        <path class="cls-3" d="m1450.12,359.9h-8.13v27.76h-7.52v-60.53h7.52v25.68h8.04l19.37-25.68h9.69l-22.14,29.14,24.13,31.39h-9.69l-21.27-27.76Z"/>
        <path class="cls-3" d="m1530.71,340.96v46.7h-6.14l-.78-7.09c-2.13,2.54-4.79,4.53-7.96,5.97-3.17,1.44-6.63,2.16-10.38,2.16-4.5,0-8.59-1.07-12.28-3.2-3.69-2.13-6.59-5.06-8.69-8.78-2.11-3.72-3.16-7.85-3.16-12.41s1.05-8.78,3.16-12.5c2.1-3.72,5-6.63,8.69-8.73,3.69-2.1,7.78-3.16,12.28-3.16,3.81,0,7.29.72,10.46,2.16,3.17,1.44,5.82,3.46,7.96,6.05l.95-7.18h5.88Zm-15.87,38.39c2.62-1.5,4.67-3.56,6.14-6.18,1.47-2.62,2.2-5.58,2.2-8.86s-.73-6.24-2.2-8.86c-1.47-2.62-3.52-4.68-6.14-6.18-2.62-1.5-5.55-2.25-8.78-2.25s-6.15.75-8.78,2.25c-2.62,1.5-4.68,3.57-6.18,6.23-1.5,2.65-2.25,5.59-2.25,8.82s.75,6.17,2.25,8.82c1.5,2.65,3.56,4.73,6.18,6.23,2.62,1.5,5.55,2.25,8.78,2.25s6.15-.75,8.78-2.25Z"/>
        <path class="cls-3" d="m1578.36,342.47c2.71,1.7,4.8,4.05,6.27,7.05s2.2,6.4,2.2,10.2v27.93h-7.35v-26.2c0-4.78-1.08-8.44-3.24-10.98-2.16-2.54-5.26-3.81-9.3-3.81-2.59,0-4.97.68-7.13,2.03-2.16,1.35-3.86,3.21-5.1,5.58-1.24,2.36-1.86,4.99-1.86,7.87v25.51h-7.35v-46.7h5.19l1.47,7.35c1.73-2.65,4.05-4.71,6.96-6.18,2.91-1.47,6.15-2.2,9.73-2.2s6.8.85,9.51,2.55Z"/>
        <path class="cls-3" d="m1638.07,343.08c3.66,2.1,6.51,5.02,8.56,8.73,2.05,3.72,3.07,7.88,3.07,12.5s-1.02,8.76-3.07,12.45c-2.05,3.69-4.9,6.6-8.56,8.73-3.66,2.13-7.8,3.2-12.41,3.2-3.63,0-6.99-.68-10.07-2.03s-5.72-3.24-7.91-5.66l-.95,6.66h-5.71v-63.39h7.35v22.57c2.13-2.19,4.68-3.89,7.65-5.1,2.97-1.21,6.18-1.82,9.64-1.82,4.61,0,8.75,1.05,12.41,3.16Zm-4.19,36.28c2.59-1.5,4.63-3.56,6.1-6.18,1.47-2.62,2.2-5.58,2.2-8.86s-.73-6.24-2.2-8.86c-1.47-2.62-3.5-4.68-6.1-6.18-2.59-1.5-5.53-2.25-8.82-2.25s-6.15.75-8.78,2.25c-2.62,1.5-4.68,3.57-6.18,6.23-1.5,2.65-2.25,5.59-2.25,8.82s.75,6.15,2.25,8.78c1.5,2.62,3.56,4.7,6.18,6.23,2.62,1.53,5.55,2.29,8.78,2.29s6.23-.75,8.82-2.25Z"/>
        <path class="cls-3" d="m1706.52,340.96v46.7h-6.14l-.78-7.09c-2.13,2.54-4.79,4.53-7.96,5.97-3.17,1.44-6.63,2.16-10.38,2.16-4.5,0-8.59-1.07-12.28-3.2-3.69-2.13-6.59-5.06-8.69-8.78-2.11-3.72-3.16-7.85-3.16-12.41s1.05-8.78,3.16-12.5c2.1-3.72,5-6.63,8.69-8.73,3.69-2.1,7.78-3.16,12.28-3.16,3.81,0,7.29.72,10.46,2.16,3.17,1.44,5.82,3.46,7.96,6.05l.95-7.18h5.88Zm-15.87,38.39c2.62-1.5,4.67-3.56,6.14-6.18,1.47-2.62,2.2-5.58,2.2-8.86s-.73-6.24-2.2-8.86c-1.47-2.62-3.52-4.68-6.14-6.18-2.62-1.5-5.55-2.25-8.78-2.25s-6.15.75-8.78,2.25c-2.62,1.5-4.68,3.57-6.18,6.23-1.5,2.65-2.25,5.59-2.25,8.82s.75,6.17,2.25,8.82c1.5,2.65,3.56,4.73,6.18,6.23,2.62,1.5,5.55,2.25,8.78,2.25s6.15-.75,8.78-2.25Z"/>
        <path class="cls-3" d="m1754.16,342.47c2.71,1.7,4.8,4.05,6.27,7.05s2.2,6.4,2.2,10.2v27.93h-7.35v-26.2c0-4.78-1.08-8.44-3.24-10.98-2.16-2.54-5.26-3.81-9.3-3.81-2.59,0-4.97.68-7.13,2.03-2.16,1.35-3.86,3.21-5.1,5.58-1.24,2.36-1.86,4.99-1.86,7.87v25.51h-7.35v-46.7h5.19l1.47,7.35c1.73-2.65,4.05-4.71,6.96-6.18,2.91-1.47,6.15-2.2,9.73-2.2s6.8.85,9.51,2.55Z"/>
        <path class="cls-3" d="m1776.47,324.44h7.96v8.39h-7.96v-8.39Zm.35,16.52h7.35v46.7h-7.35v-46.7Z"/>
        <path class="cls-3" d="m1830.26,380.74v6.92h-36.58v-1.12l24.82-38.74h-23.18v-6.83h34.85v1.21l-24.65,38.57h24.73Z"/>
        <path class="cls-3" d="m1883.18,367.16h-39.86c.63,4.32,2.44,7.8,5.41,10.42,2.97,2.62,6.64,3.93,11.03,3.93,3.23,0,6.1-.7,8.6-2.12,2.51-1.41,4.51-3.42,6.01-6.01h7.7c-1.96,4.84-4.89,8.6-8.78,11.28-3.89,2.68-8.4,4.02-13.53,4.02-4.44,0-8.48-1.07-12.11-3.2-3.63-2.13-6.49-5.06-8.56-8.78-2.08-3.72-3.11-7.85-3.11-12.41s1.04-8.69,3.11-12.41,4.93-6.64,8.56-8.78c3.63-2.13,7.67-3.2,12.11-3.2s8.7,1.08,12.28,3.24c3.57,2.16,6.36,5.12,8.35,8.86,1.99,3.75,2.98,7.9,2.98,12.45,0,.64-.06,1.53-.17,2.68Zm-34.11-16.6c-2.91,2.42-4.77,5.68-5.58,9.77h32.43c-.75-4.15-2.59-7.42-5.53-9.81-2.94-2.39-6.49-3.59-10.64-3.59s-7.77,1.21-10.68,3.63Z"/>
      </g>
      <g>
        <g>
          <path class="cls-4" d="m75,143.87c5.45,5.45,5.45,14.32,0,20.46l-25.23,25.22c-5.44,5.45-14.31,5.45-20.44,0l-25.23-25.22c-5.46-5.46-5.46-14.32,0-20.46l25.23-25.23c5.44-5.44,14.31-5.44,20.44,0l25.23,25.23Z"/>
          <path class="cls-5" d="m175.23,107.04c-5.44-5.44-5.44-14.31,0-20.45l25.23-25.22c5.45-5.46,14.32-5.46,20.45,0l56.6,56.59,25.23,25.23c5.44,5.44,5.44,14.31,0,20.44l-82.52,82.52c-5.44,5.44-14.31,5.44-20.44,0l-25.23-25.23c-5.46-5.46-5.46-14.32,0-19.79l36.81-36.81c5.45-5.45,5.45-15,0-20.45l-36.14-36.82Z"/>
          <path class="cls-1" d="m106.37,175.23c-1.36-1.36-2.73-2.05-4.09-2.73v-37.5c1.36-.68,2.73-1.36,4.09-2.73l25.23-25.22c5.45-5.45,5.45-14.31,0-20.45l-25.23-25.23c-5.44-5.45-14.31-5.45-20.46,0l-24.54,25.23c-5.46,5.44-5.46,14.31,0,20.45l25.23,25.22c1.36,1.37,2.72,2.06,4.09,2.73v37.5c-1.37.69-2.73,1.37-4.09,2.73l-25.23,25.23c-5.46,5.45-5.46,14.32,0,20.45l25.23,25.23c5.45,5.45,14.32,5.45,20.45,0l25.23-25.23c5.44-5.45,5.44-14.32,0-20.45l-25.92-25.23Z"/>
          <path class="cls-2" d="m163.65,231.83c-1.36-1.36-2.73-2.05-4.09-2.73v-37.5c1.36-.68,2.73-1.36,4.09-2.73l25.22-25.22c5.45-5.45,5.45-14.31,0-20.45l-25.22-25.23c-1.36-1.36-2.73-2.05-4.09-2.73v-37.5c1.36-.69,2.73-1.36,4.09-2.72l25.22-25.23c5.45-5.46,5.45-14.31,0-20.46l-25.22-25.22c-5.45-5.45-14.32-5.45-20.46,0l-25.22,25.22c-5.46,5.46-5.46,14.32,0,20.46l25.22,25.23c1.37,1.36,2.73,2.04,4.1,2.72v37.5c-1.37.69-2.73,1.37-4.1,2.73l-25.22,25.23c-5.46,5.44-5.46,14.31,0,20.45l25.22,25.22c1.37,1.37,2.73,2.06,4.1,2.73v37.5c-1.37.69-2.73,1.37-4.1,2.73l-25.22,25.23c-5.46,5.45-5.46,14.31,0,20.45l25.22,25.22c5.45,5.46,14.31,5.46,20.46,0l25.22-25.22c5.45-5.45,5.45-14.32,0-20.45l-25.22-25.23Z"/>
        </g>
        <g>
          <path class="cls-3" d="m962.56,157.47v73.34h-29.96v-69.51c0-22.77-11.26-33.79-30.44-33.79-21.33,0-35.71,12.94-35.71,38.59v64.71h-29.96v-127.99h28.52v16.54c9.83-11.74,25.4-17.98,44.1-17.98,30.68,0,53.45,17.5,53.45,56.09Z"/>
          <path class="cls-3" d="m1896.81,165.07c0,39.79-27.56,65.67-64.95,65.67-16.3,0-30.68-5.51-40.98-17.26v62.08h-29.96V101.08h28.52v16.78c10.07-12.22,24.92-18.22,42.42-18.22,37.39,0,64.95,25.88,64.95,65.43Zm-30.44,0c0-24.45-16.3-40.03-37.87-40.03s-38.11,15.58-38.11,40.03,16.54,40.03,38.11,40.03,37.87-15.58,37.87-40.03Z"/>
          <path class="cls-3" d="m1583,155.72v73.34h-29.96v-69.51c0-22.77-10.54-33.79-28.76-33.79-19.65,0-33.31,12.94-33.31,38.35v64.95h-29.96v-69.51c0-22.77-10.54-33.79-28.76-33.79-19.89,0-33.31,12.94-33.31,38.35v64.95h-29.96v-127.99h28.52v16.3c9.58-11.51,24.44-17.74,41.94-17.74,18.69,0,34.27,6.95,43.14,21.33,10.3-13.18,27.56-21.33,47.93-21.33,30.92,0,52.49,17.5,52.49,56.09Z"/>
          <path class="cls-3" d="m508.9,169.15c0,39.79-27.56,65.67-64.95,65.67-17.5,0-32.36-5.99-42.42-18.22v16.54h-28.52V55.31h29.96v65.43c10.3-11.51,24.68-17.02,40.98-17.02,37.39,0,64.95,25.65,64.95,65.43Zm-30.44,0c0-24.45-16.3-40.03-37.87-40.03s-38.11,15.58-38.11,40.03,16.54,40.03,38.11,40.03,37.87-15.58,37.87-40.03Z"/>
          <path class="cls-3" d="m553.26,226.87c-9.01-4.87-15.98-11.72-20.93-20.56-4.95-8.84-7.42-19.1-7.42-30.78v-75.92h27.01v72.03c0,11.36,2.92,20.32,8.76,26.89,5.84,6.57,13.78,9.85,23.85,9.85s18.25-3.28,24.09-9.85c5.84-6.57,8.76-15.53,8.76-26.89v-72.03h27.01v75.92c0,11.68-2.48,21.94-7.42,30.78-4.95,8.84-11.92,15.7-20.93,20.56-9,4.87-19.51,7.3-31.51,7.3s-22.26-2.43-31.27-7.3Z"/>
          <path class="cls-3" d="m1110.66,174.55h-106.58c1.62,10.55,6,18.9,13.14,25.06,7.14,6.17,16.14,9.25,27.01,9.25,7.79,0,14.76-1.71,20.93-5.11,6.16-3.41,10.95-8.11,14.36-14.11h28.47c-5.2,13.79-13.47,24.66-24.82,32.61-11.36,7.95-24.33,11.92-38.93,11.92-12.65,0-24.13-3-34.43-9-10.3-6-18.41-14.27-24.33-24.82-5.93-10.54-8.88-22.22-8.88-35.04s2.95-24.7,8.88-35.16c5.92-10.46,14.03-18.7,24.33-24.7,10.3-6,21.78-9,34.43-9s24.78,3.08,34.92,9.25c10.14,6.17,18.01,14.52,23.61,25.06,5.6,10.55,8.39,22.14,8.39,34.8,0,2.11-.17,5.11-.49,9Zm-92.22-45.26c-6.98,5.68-11.6,13.47-13.87,23.36h79.57c-2.44-9.89-7.18-17.68-14.24-23.36-7.06-5.68-15.62-8.52-25.67-8.52s-18.82,2.84-25.79,8.52Z"/>
          <path class="cls-3" d="m786.34,51.43h27.99v27.74h-27.99v-27.74Zm.49,48.18h27.01v131.4h-27.01V99.61Z"/>
          <path class="cls-3" d="m673.86,222c-9.73-8.11-14.76-18.98-15.08-32.61h26.52c.32,6.81,3.08,12.01,8.27,15.57,5.19,3.57,11.84,5.35,19.96,5.35,7.46,0,13.58-1.5,18.37-4.5,4.78-3,7.18-7.18,7.18-12.53s-2.52-9.49-7.54-11.92c-5.03-2.43-12.58-4.46-22.63-6.08-9.73-1.62-17.85-3.53-24.33-5.72-6.49-2.19-12.01-5.96-16.55-11.31-4.54-5.35-6.81-12.73-6.81-22.14,0-7.78,2.11-14.68,6.33-20.68,4.22-6,10.18-10.66,17.88-13.99,7.7-3.32,16.59-4.99,26.64-4.99,15.25,0,27.46,3.81,36.63,11.44,9.16,7.63,13.91,17.85,14.23,30.66h-25.55c-.17-6.33-2.52-11.11-7.05-14.36-4.54-3.24-10.79-4.87-18.74-4.87-7.46,0-13.38,1.46-17.76,4.38-4.38,2.92-6.57,6.73-6.57,11.44,0,5.19,2.39,8.88,7.18,11.07,4.78,2.19,12.2,4.01,22.26,5.47,10.54,1.79,19.02,3.73,25.43,5.84,6.41,2.11,11.96,5.88,16.67,11.31,4.7,5.44,7.05,13.18,7.05,23.24,0,12.65-4.87,22.84-14.6,30.54-9.74,7.71-22.63,11.56-38.69,11.56s-28.96-4.05-38.69-12.17Z"/>
          <path class="cls-3" d="m1138.95,222c-9.73-8.11-14.76-18.98-15.08-32.61h26.52c.32,6.81,3.08,12.01,8.27,15.57,5.19,3.57,11.84,5.35,19.96,5.35,7.46,0,13.58-1.5,18.37-4.5,4.78-3,7.18-7.18,7.18-12.53s-2.52-9.49-7.54-11.92c-5.03-2.43-12.58-4.46-22.63-6.08-9.73-1.62-17.85-3.53-24.33-5.72-6.49-2.19-12.01-5.96-16.55-11.31-4.54-5.35-6.81-12.73-6.81-22.14,0-7.78,2.11-14.68,6.33-20.68,4.22-6,10.18-10.66,17.88-13.99,7.7-3.32,16.59-4.99,26.64-4.99,15.25,0,27.46,3.81,36.63,11.44,9.16,7.63,13.91,17.85,14.23,30.66h-25.55c-.17-6.33-2.52-11.11-7.05-14.36-4.54-3.24-10.79-4.87-18.74-4.87-7.46,0-13.38,1.46-17.76,4.38-4.38,2.92-6.57,6.73-6.57,11.44,0,5.19,2.39,8.88,7.18,11.07,4.78,2.19,12.2,4.01,22.26,5.47,10.54,1.79,19.02,3.73,25.43,5.84,6.41,2.11,11.96,5.88,16.67,11.31,4.7,5.44,7.05,13.18,7.05,23.24,0,12.65-4.87,22.84-14.6,30.54-9.74,7.71-22.63,11.56-38.69,11.56s-28.96-4.05-38.69-12.17Z"/>
          <path class="cls-3" d="m1260.69,222c-9.73-8.11-14.76-18.98-15.08-32.61h26.52c.32,6.81,3.08,12.01,8.27,15.57,5.19,3.57,11.84,5.35,19.96,5.35,7.46,0,13.58-1.5,18.37-4.5,4.78-3,7.18-7.18,7.18-12.53s-2.52-9.49-7.54-11.92c-5.03-2.43-12.58-4.46-22.63-6.08-9.73-1.62-17.85-3.53-24.33-5.72-6.49-2.19-12.01-5.96-16.55-11.31-4.54-5.35-6.81-12.73-6.81-22.14,0-7.78,2.11-14.68,6.33-20.68,4.22-6,10.18-10.66,17.88-13.99,7.7-3.32,16.59-4.99,26.64-4.99,15.25,0,27.46,3.81,36.63,11.44,9.16,7.63,13.91,17.85,14.23,30.66h-25.55c-.17-6.33-2.52-11.11-7.05-14.36-4.54-3.24-10.79-4.87-18.74-4.87-7.46,0-13.38,1.46-17.76,4.38-4.38,2.92-6.57,6.73-6.57,11.44,0,5.19,2.39,8.88,7.18,11.07,4.78,2.19,12.2,4.01,22.26,5.47,10.54,1.79,19.02,3.73,25.43,5.84,6.41,2.11,11.96,5.88,16.67,11.31,4.7,5.44,7.05,13.18,7.05,23.24,0,12.65-4.87,22.84-14.6,30.54-9.74,7.71-22.63,11.56-38.69,11.56s-28.96-4.05-38.69-12.17Z"/>
          <path class="cls-3" d="m1740.44,100.03v131.4h-22.25l-.05-17.85c-6,6.17-15.33,12.7-23.44,16.03-8.11,3.32-16.87,4.99-26.28,4.99-12.82,0-24.45-3-34.92-9-10.46-6-18.7-14.23-24.7-24.7-6-10.47-9-22.18-9-35.16s3-24.74,9-35.28c6-10.54,14.24-18.78,24.7-24.7,10.47-5.92,22.1-8.88,34.92-8.88,9.41,0,18.25,1.7,26.53,5.11,8.27,3.41,17.25,8.59,23.25,14.75v-16.7h22.25Zm-48.06,103.17c6.57-3.73,11.68-8.88,15.33-15.45,3.65-6.57,5.47-13.91,5.47-22.02s-1.82-15.45-5.47-22.02c-3.65-6.57-8.76-11.72-15.33-15.45-6.57-3.73-13.91-5.6-22.02-5.6s-15.45,1.87-22.02,5.6c-6.57,3.73-11.72,8.88-15.45,15.45-3.73,6.57-5.6,13.91-5.6,22.02s1.86,15.45,5.6,22.02c3.73,6.57,8.88,11.72,15.45,15.45,6.57,3.73,13.91,5.6,22.02,5.6s15.45-1.86,22.02-5.6Z"/>
        </g>
      </g>
    </g>
  </g>
</svg>