<svg width="720" height="720" viewBox="0 0 720 720" fill="none" xmlns="http://www.w3.org/2000/svg">
<rect width="720" height="720" rx="130" fill="#282828"/>
<g clip-path="url(#clip0_304_778)">
<path d="M96.6058 385.927V377.188H70.7097V334.311H60.8203V385.927H96.6058ZM121.482 384.301C123.623 382.675 125.254 380.542 126.376 377.899V385.927H135.857V361.033C135.857 358.391 135.245 355.953 133.92 353.921C132.595 351.888 130.658 350.263 128.211 349.145C125.764 348.027 122.807 347.418 119.443 347.418C117.608 347.418 115.773 347.621 114.04 347.926C112.306 348.23 110.675 348.739 109.146 349.348C107.616 349.958 106.189 350.669 104.966 351.482L105.272 360.322C107.616 358.798 109.86 357.68 112.103 356.867C114.346 356.054 116.792 355.648 119.545 355.648C121.686 355.648 123.419 356.156 124.643 357.172C125.866 358.188 126.478 359.509 126.478 361.134V363.675H117.914C112.816 363.675 108.84 364.691 105.883 366.825C102.927 368.958 101.499 371.904 101.499 375.664C101.499 377.798 102.009 379.627 102.927 381.354C103.946 383.081 105.272 384.402 107.107 385.317C108.942 386.333 111.083 386.739 113.428 386.739C116.69 386.739 119.341 385.927 121.482 384.301ZM112.918 377.899C111.898 377.087 111.287 375.969 111.287 374.547C111.287 372.819 112 371.499 113.53 370.584C114.957 369.669 117.2 369.161 120.055 369.161H126.172V370.584C126.172 371.803 125.866 373.022 125.152 374.343C124.438 375.664 123.419 376.782 121.992 377.696C120.564 378.611 118.933 379.119 117.098 379.119C115.365 379.119 113.938 378.712 112.918 377.899ZM166.035 384.199C168.278 382.269 169.91 379.627 170.929 376.376V385.927H180.512V348.535H170.929V366.011C170.929 368.552 170.521 370.787 169.706 372.718C168.89 374.648 167.769 376.274 166.24 377.29C164.71 378.408 162.977 378.915 161.04 378.915C158.899 378.915 157.267 378.306 156.044 377.087C154.922 375.867 154.311 374.038 154.311 371.702V348.535H144.727V371.904C144.727 376.782 145.849 380.44 148.193 383.081C150.539 385.723 153.597 387.044 157.573 387.044C161.04 387.044 163.792 386.13 166.035 384.199ZM200.597 385.927V368.45C200.597 365.91 201.005 363.675 201.82 361.744C202.636 359.814 203.757 358.188 205.185 357.172C206.613 356.054 208.345 355.546 210.283 355.546C212.424 355.546 214.055 356.156 215.278 357.375C216.4 358.594 217.012 360.423 217.012 362.76V386.028H226.697V362.659C226.697 357.782 225.575 354.124 223.231 351.482C220.885 348.84 217.827 347.519 213.851 347.519C210.487 347.519 207.734 348.535 205.491 350.364C203.35 352.295 201.719 354.937 200.597 358.188V348.637H191.014V386.028H200.597V385.927ZM259.118 386.739C260.341 386.536 261.565 386.231 262.584 385.927C263.706 385.622 264.624 385.215 265.643 384.911L265.745 375.867C264.216 376.68 262.584 377.188 260.851 377.595C259.118 378.001 257.385 378.204 255.651 378.204C253.103 378.204 250.86 377.696 249.127 376.782C247.393 375.867 246.068 374.547 245.252 372.819C244.437 371.193 244.029 369.263 244.029 367.231C244.029 365.199 244.437 363.37 245.252 361.642C246.068 360.017 247.393 358.696 249.127 357.68C250.86 356.664 253.001 356.257 255.448 356.257C257.385 356.257 259.118 356.46 260.851 356.867C262.584 357.274 264.114 357.883 265.643 358.594L265.541 349.247C264.419 348.84 263.4 348.434 262.38 348.23C261.361 347.926 260.239 347.723 258.914 347.621C257.691 347.418 256.365 347.316 254.938 347.316C250.656 347.316 246.986 348.23 243.825 349.958C240.665 351.685 238.218 354.124 236.484 357.07C234.752 360.118 233.936 363.472 233.936 367.333C233.936 371.092 234.853 374.547 236.586 377.493C238.32 380.44 240.766 382.777 243.927 384.402C247.088 386.028 250.758 386.943 254.938 386.943C256.467 387.044 257.894 386.943 259.118 386.739ZM283.892 385.927V368.45C283.892 365.91 284.3 363.675 285.116 361.744C285.932 359.814 287.053 358.188 288.582 357.172C290.112 356.054 291.743 355.546 293.68 355.546C295.923 355.546 297.554 356.156 298.675 357.375C299.797 358.594 300.409 360.423 300.409 362.76V386.028H309.992V362.659C309.992 357.782 308.871 354.124 306.526 351.482C304.181 348.84 301.122 347.519 297.146 347.519C293.782 347.519 290.927 348.535 288.786 350.364C286.543 352.295 284.912 354.937 283.892 358.188V334.311H274.411V385.927H283.892ZM340.986 385.927C346.491 385.927 351.181 384.911 355.055 382.777C358.929 380.643 361.886 377.696 363.925 373.835C365.964 369.974 366.983 365.402 366.983 360.22C366.983 355.038 365.964 350.466 363.925 346.605C361.886 342.744 358.929 339.696 355.055 337.562C351.181 335.428 346.491 334.412 340.986 334.412H321.105V386.028H340.986V385.927ZM330.995 377.188V343.049H340.884C345.88 343.049 349.754 344.573 352.506 347.519C355.361 350.567 356.686 354.733 356.686 360.118C356.686 365.504 355.259 369.771 352.506 372.718C349.652 375.664 345.778 377.188 340.884 377.188H330.995ZM392.064 384.301C394.205 382.675 395.836 380.542 396.958 377.899V385.927H406.439V361.033C406.439 358.391 405.828 355.953 404.502 353.921C403.177 351.888 401.24 350.263 398.793 349.145C396.346 348.027 393.389 347.418 390.025 347.418C388.19 347.418 386.354 347.621 384.621 347.926C382.888 348.23 381.257 348.739 379.728 349.348C378.199 349.958 376.771 350.669 375.548 351.482L375.853 360.322C378.199 358.798 380.441 357.68 382.684 356.867C384.927 356.054 387.374 355.648 390.127 355.648C392.268 355.648 394.001 356.156 395.225 357.172C396.448 358.188 397.059 359.509 397.059 361.134V363.675H388.7C383.602 363.675 379.626 364.691 376.669 366.825C373.713 368.958 372.285 371.904 372.285 375.664C372.285 377.798 372.795 379.627 373.713 381.354C374.732 383.081 376.057 384.402 377.893 385.317C379.728 386.333 381.869 386.739 384.214 386.739C387.374 386.739 389.923 385.927 392.064 384.301ZM383.5 377.899C382.481 377.087 381.869 375.969 381.869 374.547C381.869 372.819 382.582 371.499 384.111 370.584C385.539 369.669 387.782 369.161 390.637 369.161H396.754V370.584C396.754 371.803 396.448 373.022 395.734 374.343C395.021 375.664 394.001 376.782 392.574 377.696C391.147 378.611 389.617 379.017 387.782 379.017C386.049 379.119 384.621 378.712 383.5 377.899ZM425.81 385.927V369.974C425.81 365.808 426.728 362.659 428.461 360.525C430.194 358.391 432.641 357.274 435.598 357.274C437.025 357.274 438.351 357.476 439.574 357.883V348.637C438.962 348.434 438.351 348.332 437.739 348.23C437.127 348.129 436.414 348.129 435.7 348.129C433.355 348.129 431.316 348.942 429.684 350.567C428.053 352.193 426.728 354.53 425.913 357.375V348.434H416.329V385.825H425.81V385.927ZM455.273 385.927V373.835L458.741 370.584L469.957 385.927H481.374L465.368 364.081L481.067 348.535H469.039L455.378 361.744V334.311H445.897V385.927H455.273ZM496.77 385.927V334.311H487.188V385.927H496.77ZM511.45 399.847C515.016 399.847 517.874 399.136 520.114 397.713C522.358 396.29 524.197 393.75 525.721 390.194L542.952 348.535H533.063L522.972 374.648L512.57 348.535H502.68L518.08 385.825L517.259 387.755C516.75 388.975 516.139 389.991 515.226 390.499C514.409 391.109 513.079 391.413 511.349 391.413H503.396V399.847H511.45Z" fill="white"/>
<path d="M613.506 406.145C612.791 406.145 612.079 405.739 611.671 405.027C611.363 404.316 611.363 403.605 611.873 402.995L633.592 373.224L595.563 388.669C595.256 388.77 595.05 388.872 594.747 388.872C593.829 388.872 593.016 388.262 592.81 387.449C592.503 386.637 592.911 385.722 593.623 385.214L627.066 365.604L568.241 362.251C567.016 362.15 566.304 361.235 566.304 360.219C566.304 359.304 566.915 358.288 568.241 358.187L627.066 354.834L593.623 335.224C592.911 334.716 592.503 333.801 592.81 332.988C593.113 332.176 593.829 331.566 594.747 331.566C595.05 331.566 595.256 331.668 595.563 331.769L633.592 347.213L611.873 317.341C611.468 316.732 611.363 315.919 611.671 315.309C611.978 314.598 612.693 314.191 613.506 314.191C614.016 314.191 614.525 314.394 614.933 314.801L658.165 357.781C658.771 358.39 659.078 359.304 659.078 360.117C659.078 360.93 658.771 361.743 658.165 362.454L614.933 405.535C614.525 405.942 614.016 406.145 613.506 406.145Z" fill="white"/>
</g>
<defs>
<clipPath id="clip0_304_778">
<rect width="598" height="92" fill="white" transform="translate(61 314)"/>
</clipPath>
</defs>
</svg>
